<?xml version="1.0" encoding="utf-8"?>
<!-- Generator: Adobe Illustrator 26.0.3, SVG Export Plug-In . SVG Version: 6.00 Build 0)  -->
<svg version="1.1" id="Layer_1" xmlns="http://www.w3.org/2000/svg" xmlns:xlink="http://www.w3.org/1999/xlink" x="0px" y="0px"
	 viewBox="0 0 336 216.45" style="enable-background:new 0 0 336 216.45;" xml:space="preserve">
<style type="text/css">
	.st0{fill:#0051BA;}
</style>
<g>
	<path class="st0" d="M128.69,29.03c-7.43,6.81-42.57,42.12-50.53,50.54l67.09,72.14l27.22,29.51c9.46,9.07,20.43,18.61,32.18,23.19
		c7.02,2.81,12.73,4.54,15.54,4.54c1.64,0,3.05,0.48,3.05,1.87c0,1.63-1.18,2.34-5.62,2.34h-20.36c-7.01,0-11.23,0-16.14-0.46
		c-12.63-1.17-18.94-6.32-29.01-15.21L60.16,95.94l-2.58-3.51h-1.17v21.29c0,21.52,0,40,0.71,50.06c0.47,6.54,2.58,11.7,8.42,12.64
		c3.27,0.47,8.42,0.94,11.45,0.94c1.88,0,3.05,0.69,3.05,1.86c0,1.63-1.88,2.34-4.44,2.34c-13.11,0-27.85-0.71-33.7-0.71
		c-5.38,0-20.12,0.71-29.48,0.71c-3.04,0-4.68-0.71-4.68-2.34c0-1.17,0.94-1.86,3.74-1.86c3.51,0,6.32-0.47,8.42-0.94
		c4.68-0.94,5.85-6.09,6.79-12.88c1.17-9.82,1.17-28.3,1.17-49.82V72.55c0-35.57,0-42.12-0.47-49.6C26.93,15,25.06,11.25,17.33,9.61
		c-1.87-0.47-5.85-0.7-9.13-0.7c-2.58,0-3.96-0.47-3.96-2.11S5.88,4.7,9.38,4.7c12.4,0,27.14,0.71,32.75,0.71
		c5.62,0,20.36-0.71,28.32-0.71c3.29,0,4.91,0.47,4.91,2.11s-1.4,2.11-3.28,2.11c-2.34,0-3.75,0.23-6.54,0.7
		c-6.32,1.17-8.19,5.15-8.66,13.33c-0.47,7.49-0.47,14.04-0.47,49.6v10.29h1.17c7.95-8.66,42.11-43.52,48.9-51.47
		c6.55-7.72,11.7-13.56,11.7-17.54c0-2.58-0.94-4.22-3.29-4.69c-2.1-0.47-3.03-0.93-3.03-2.34c0-1.64,1.17-2.11,3.74-2.11
		c4.9,0,17.77,0.71,24.09,0.71l44.85-0.02c5.6,0,20.3-0.7,28.7-0.7c3.5,0,5.14,0.47,5.14,2.11c0,1.63-1.4,2.09-3.74,2.09
		c-2.56,0-3.96,0.24-6.76,0.7c-6.3,1.17-8.18,5.13-8.64,13.3c-0.46,7.47-0.46,14-0.46,49.47v32.67c0,33.84,6.77,48.07,18.21,57.41
		c10.5,8.64,21.23,9.57,29.16,9.57c10.28,0,22.87-3.27,32.21-12.6c12.84-12.83,13.54-33.83,13.54-57.87V72.37
		c0-35.47,0-42-0.46-49.47c-0.47-7.94-2.33-11.67-10.04-13.3c-1.86-0.46-5.83-0.7-8.39-0.7c-2.58,0-3.98-0.47-3.98-2.09
		c0-1.64,1.65-2.11,4.9-2.11c11.9,0,26.6,0.7,26.85,0.7c2.79,0,17.49-0.7,26.6-0.7c3.26,0,4.9,0.47,4.9,2.11
		c0,1.63-1.41,2.09-4.21,2.09c-2.57,0-3.97,0.24-6.77,0.7c-6.3,1.17-8.17,5.13-8.63,13.3c-0.46,7.47-0.46,14-0.46,49.47v24.97
		c0,25.9-2.57,53.43-22.17,70.23c-16.56,14.24-33.37,16.81-48.54,16.81c-12.37,0-34.77-0.7-51.8-16.1
		c-11.91-10.73-20.77-28-20.77-61.85V72.37c0-35.47,0-42-0.48-49.47c-0.46-7.94-2.77-13.3-10.03-13.3
		C151.14,9.6,140.76,17.96,128.69,29.03z"/>
</g>
<g>
	<path class="st0" d="M306.26,171.13c3.42,0,6.15,2.78,6.15,6.26c0,3.54-2.73,6.29-6.18,6.29c-3.42,0-6.21-2.76-6.21-6.29
		c0-3.48,2.78-6.26,6.21-6.26H306.26z M306.24,172.1c-2.76,0-5.01,2.37-5.01,5.29c0,2.98,2.25,5.32,5.04,5.32
		c2.78,0.03,5.01-2.34,5.01-5.29c0-2.95-2.23-5.32-5.01-5.32H306.24z M305.07,181.04h-1.11v-6.99c0.58-0.08,1.14-0.17,1.98-0.17
		c1.06,0,1.75,0.22,2.17,0.53c0.42,0.31,0.64,0.78,0.64,1.45c0,0.92-0.61,1.48-1.36,1.7v0.06c0.61,0.11,1.03,0.67,1.17,1.7
		c0.17,1.09,0.33,1.5,0.45,1.73h-1.17c-0.17-0.22-0.33-0.86-0.47-1.78c-0.17-0.89-0.61-1.22-1.5-1.22h-0.78V181.04z M305.07,177.17
		h0.81c0.92,0,1.7-0.33,1.7-1.2c0-0.61-0.45-1.22-1.7-1.22c-0.36,0-0.61,0.03-0.81,0.06V177.17z"/>
</g>
</svg>
